# xmcd
# 
# Track frame offsets:
#     150
#     16370
#     34265
#     59190
#     78313
#     97023
#     117003
#     139405
#     157078
#     172700
#     196438
#     219320
#     238535
#     261403
# 
# Disc length: 3742
# 
# Revision: 7
# Processed by: cddbd v1.5.2PL0 Copyright (c) Steve Scherf et al.
# Submitted via: BonkEnc v1.0.8
# 
DISCID=c70e9c0e
DTITLE=Ricardo Arjona - Sin daños a terceros
DYEAR=1998
DGENRE=Latin
TTITLE0=Te Guste  No
TTITLE1=Mentiroso
TTITLE2=Olvidarte
TTITLE3=Desnuda
TTITLE4=Loco
TTITLE5=Dime que no
TTITLE6=Buenas noches Don David
TTITLE7=No estoy solo
TTITLE8=Vientre de cuna
TTITLE9=Hoy es un buen día para empezar
TTITLE10=Millonario de luz
TTITLE11=Como una estrella
TTITLE12=A siete metros
TTITLE13=Tarde (sin daños a terceros)
EXTD=YEAR: 1998
EXTT0=
EXTT1=
EXTT2=
EXTT3=
EXTT4=
EXTT5=
EXTT6=
EXTT7=
EXTT8=
EXTT9=
EXTT10=
EXTT11=
EXTT12=
EXTT13=
PLAYORDER=
